<?xml version="1.0" standalone="no"?>
<!DOCTYPE svg PUBLIC "-//W3C//DTD SVG 20010904//EN"
 "http://www.w3.org/TR/2001/REC-SVG-20010904/DTD/svg10.dtd">
<svg version="1.0" xmlns="http://www.w3.org/2000/svg"
 width="128.000000pt" height="128.000000pt" viewBox="0 0 128.000000 128.000000"
 preserveAspectRatio="xMidYMid meet">

<g transform="translate(0.000000,128.000000) scale(0.100000,-0.100000)"
fill="#000000" stroke="none">
<path d="M585 1270 c-111 -22 -240 -93 -309 -170 -49 -55 -104 -170 -116 -246
-8 -46 -6 -77 6 -138 19 -95 16 -116 -30 -192 -20 -33 -36 -68 -36 -80 0 -24
26 -50 55 -56 15 -2 22 -14 27 -43 13 -75 21 -96 39 -108 14 -9 19 -24 19 -55
0 -64 34 -92 113 -92 32 0 86 7 120 16 68 17 72 15 83 -46 4 -19 11 -41 17
-47 12 -16 552 -19 562 -4 3 5 -10 40 -29 78 -35 71 -66 162 -66 197 0 11 20
61 45 111 84 171 114 352 84 497 -17 81 -72 188 -127 245 -106 110 -295 165
-457 133z m260 -62 c131 -42 210 -121 265 -263 20 -51 24 -78 24 -180 0 -104
-4 -131 -28 -205 -16 -47 -48 -125 -73 -173 l-44 -88 16 -60 c8 -33 26 -89 40
-123 14 -34 25 -66 25 -69 0 -4 -104 -6 -231 -5 l-231 3 -14 40 c-19 54 -19
54 24 73 53 24 102 61 102 77 0 26 -20 26 -52 2 -53 -39 -113 -66 -196 -87
-139 -35 -201 -22 -187 41 9 38 -2 67 -27 74 -14 5 -17 10 -9 18 17 17 13 34
-9 40 -14 3 -20 14 -20 32 0 39 -16 62 -51 74 l-31 11 42 75 c37 67 41 81 39
132 -3 54 -1 58 27 75 16 10 44 18 62 18 36 0 55 26 31 41 -22 14 -52 11 -94
-11 -22 -11 -41 -20 -43 -20 -3 0 -2 34 0 75 19 287 343 480 643 383z"/>
<path d="M624 1169 c-25 -24 -94 -43 -108 -29 -16 16 -62 11 -79 -8 -10 -10
-17 -34 -17 -53 0 -34 -6 -43 -67 -99 -30 -26 -29 -55 3 -87 38 -38 53 -81 47
-134 -5 -42 -3 -49 20 -63 28 -19 75 -13 84 10 9 23 119 18 150 -6 14 -11 31
-20 38 -20 7 0 26 -22 43 -49 25 -40 29 -57 25 -89 -4 -33 -2 -42 18 -56 37
-26 60 -19 105 29 34 37 47 45 77 45 79 0 90 63 22 128 -25 24 -45 48 -45 53
0 14 43 28 55 18 16 -16 64 -10 85 11 28 28 25 57 -8 88 -41 39 -51 63 -45
108 6 49 -14 74 -60 74 -35 1 -72 23 -63 39 11 17 -16 61 -41 68 -14 3 -35 1
-48 -5 -30 -14 -64 -5 -92 25 -28 29 -72 30 -99 2z m66 -33 c0 -20 -19 -31
-32 -18 -6 6 -7 15 -4 21 10 16 36 13 36 -3z m-192 -49 c2 -12 -3 -17 -17 -17
-12 0 -21 6 -21 13 0 31 32 34 38 4z m360 0 c2 -10 -3 -17 -12 -17 -18 0 -29
16 -21 31 9 14 29 6 33 -14z m-230 0 c8 -10 6 -22 -9 -46 l-19 -32 -30 21
c-31 22 -40 54 -17 63 24 10 65 7 75 -6z m151 -10 c13 -33 34 -47 75 -51 41
-3 61 -18 53 -40 -9 -23 -58 -24 -92 -1 -87 57 -122 115 -70 115 17 0 28 -7
34 -23z m-50 -104 c-15 -18 -49 -16 -70 3 -18 16 -18 18 -2 45 l17 29 33 -32
c25 -24 30 -35 22 -45z m-195 32 c37 -25 28 -39 -28 -43 -37 -2 -51 1 -61 15
-11 15 -11 21 1 34 18 20 52 17 88 -6z m456 -19 c0 -20 -19 -31 -32 -18 -6 6
-7 15 -4 21 10 16 36 13 36 -3z m-580 -46 c0 -11 -6 -20 -13 -20 -19 0 -27 10
-20 26 8 21 33 17 33 -6z m215 -1 c0 -7 -8 -15 -17 -17 -18 -3 -25 18 -11 32
10 10 28 1 28 -15z m170 0 c0 -7 -8 -15 -17 -17 -18 -3 -25 18 -11 32 10 10
28 1 28 -15z m135 -3 c0 -2 -9 -25 -20 -51 -21 -49 -34 -51 -73 -7 -16 17 -16
20 -2 32 8 7 30 16 48 20 42 10 47 11 47 6z m-373 -33 c4 -11 -7 -28 -38 -54
-24 -21 -49 -39 -55 -39 -6 0 -17 14 -24 31 -10 24 -10 35 0 55 11 20 21 24
62 24 36 0 50 -4 55 -17z m174 -4 c9 -17 7 -28 -7 -55 -10 -19 -22 -34 -27
-34 -4 0 -16 19 -27 42 -14 31 -16 46 -8 55 16 20 56 15 69 -8z m248 -64 c-39
-65 -56 -29 -23 50 l16 39 14 -26 c13 -24 12 -31 -7 -63z m-346 -2 c22 -55 14
-63 -59 -63 -35 0 -64 3 -64 8 0 8 91 91 101 92 4 0 14 -17 22 -37z m185 4
c18 -19 20 -26 9 -39 -14 -18 -74 -32 -82 -18 -6 9 33 80 44 80 4 0 17 -10 29
-23z m232 -27 c0 -11 -6 -20 -13 -20 -19 0 -27 10 -20 26 8 21 33 17 33 -6z
m-146 -35 c3 -9 -1 -18 -10 -22 -19 -7 -28 2 -21 22 8 19 23 19 31 0z m-426
-28 c2 -12 -3 -17 -17 -17 -12 0 -21 6 -21 13 0 31 32 34 38 4z m232 -3 c0
-14 -21 -19 -33 -7 -9 9 13 34 24 27 5 -3 9 -12 9 -20z m131 -20 c10 -9 30
-16 43 -16 35 0 53 -24 38 -49 -7 -10 -12 -28 -12 -40 0 -65 -82 -42 -137 37
-34 50 -34 70 0 77 42 8 51 7 68 -9z m147 -107 c2 -10 -3 -17 -12 -17 -18 0
-29 16 -21 31 9 14 29 6 33 -14z m-148 -81 c0 -8 -5 -18 -11 -22 -14 -8 -33
11 -25 25 10 16 36 13 36 -3z"/>
</g>
</svg>
