<?xml version="1.0" standalone="no"?>
<!DOCTYPE svg PUBLIC "-//W3C//DTD SVG 20010904//EN"
 "http://www.w3.org/TR/2001/REC-SVG-20010904/DTD/svg10.dtd">
<svg version="1.0" xmlns="http://www.w3.org/2000/svg"
 width="128.000000pt" height="128.000000pt" viewBox="0 0 128.000000 128.000000"
 preserveAspectRatio="xMidYMid meet">

<g transform="translate(0.000000,128.000000) scale(0.100000,-0.100000)"
fill="#000000" stroke="none">
<path d="M0 640 l0 -640 285 0 c157 0 285 4 285 8 0 14 -31 112 -35 112 -2 0
-30 -7 -62 -15 -31 -8 -86 -15 -121 -15 -81 0 -112 26 -112 92 0 31 -5 46 -19
55 -18 12 -26 33 -39 107 -6 34 -12 41 -39 48 -46 12 -54 49 -23 103 66 115
65 111 49 194 -26 138 -7 246 62 353 67 104 202 195 332 223 57 12 38 13 -250
14 l-313 1 0 -640z"/>
<path d="M812 1264 c288 -69 431 -355 343 -683 -14 -52 -46 -136 -70 -186 -25
-50 -45 -103 -45 -118 0 -35 55 -185 81 -220 11 -16 18 -35 15 -43 -4 -11 9
-14 69 -14 l75 0 0 640 0 640 -262 -1 c-246 -1 -259 -2 -206 -15z"/>
<path d="M581 1225 c-215 -48 -367 -208 -379 -400 l-5 -74 50 21 c57 24 107
19 101 -10 -3 -11 -12 -16 -28 -15 -14 2 -43 -7 -64 -20 l-40 -22 3 -60 c2
-54 -2 -67 -39 -129 -22 -38 -38 -71 -36 -73 2 -3 19 -12 38 -21 28 -14 34
-23 36 -56 2 -28 9 -40 23 -43 21 -6 27 -43 7 -43 -7 0 -4 -6 7 -12 31 -17 36
-30 30 -70 -3 -26 0 -41 11 -52 43 -44 265 11 372 91 25 19 37 22 45 14 17
-17 -2 -41 -63 -78 -29 -18 -57 -34 -61 -35 -5 -2 -2 -23 5 -48 l13 -45 232
-3 c131 -1 231 1 231 7 0 4 -11 34 -25 65 -14 31 -32 85 -41 120 l-16 63 45
89 c76 152 100 240 101 374 1 96 -3 126 -22 183 -28 80 -93 171 -150 211 -100
68 -260 99 -381 71z m142 -58 c28 -30 62 -39 92 -25 35 16 71 3 85 -32 7 -17
10 -33 7 -37 -12 -11 27 -32 60 -33 46 0 66 -25 60 -74 -6 -45 4 -69 45 -108
32 -29 35 -53 12 -86 -16 -23 -70 -31 -89 -13 -12 10 -55 -4 -55 -18 0 -5 20
-29 45 -53 47 -46 57 -78 31 -113 -9 -13 -25 -18 -51 -17 -34 1 -44 -4 -80
-43 -44 -48 -67 -55 -104 -29 -20 14 -22 23 -18 57 7 53 -37 127 -87 145 -19
7 -37 19 -40 27 -4 11 -21 15 -60 15 -44 0 -57 -4 -65 -19 -15 -28 -58 -35
-88 -15 -23 14 -25 21 -20 63 6 53 -9 96 -47 134 -32 32 -33 61 -3 87 61 56
67 65 67 99 0 19 7 43 17 53 17 19 63 24 79 8 14 -14 83 5 108 29 27 28 71 27
99 -2z"/>
<path d="M655 1140 c-8 -14 3 -30 21 -30 8 0 14 9 14 20 0 21 -24 28 -35 10z"/>
<path d="M467 1104 c-14 -15 -6 -34 14 -34 14 0 19 5 17 17 -3 18 -20 27 -31
17z"/>
<path d="M825 1101 c-8 -15 3 -31 21 -31 9 0 14 7 12 17 -4 20 -24 28 -33 14z"/>
<path d="M553 1093 c-23 -9 -14 -41 17 -63 l30 -21 19 32 c15 24 17 36 9 46
-10 13 -51 16 -75 6z"/>
<path d="M717 1086 c-6 -14 32 -51 100 -102 33 -23 86 -19 91 8 4 20 -33 42
-55 34 -21 -9 -62 19 -73 50 -11 27 -54 34 -63 10z"/>
<path d="M657 1021 c-16 -27 -16 -29 2 -45 21 -19 55 -21 70 -3 8 10 3 21 -22
45 l-33 32 -17 -29z"/>
<path d="M446 1011 c-12 -13 -12 -19 -1 -34 10 -14 24 -17 61 -15 56 4 65 18
28 43 -36 23 -70 26 -88 6z"/>
<path d="M954 989 c-3 -6 -2 -15 4 -21 13 -13 32 -2 32 18 0 16 -26 19 -36 3z"/>
<path d="M376 945 c-6 -17 16 -31 33 -21 13 9 2 36 -14 36 -7 0 -16 -7 -19
-15z"/>
<path d="M597 954 c-14 -14 -7 -35 11 -32 9 2 17 10 17 17 0 16 -18 25 -28 15z"/>
<path d="M767 954 c-14 -14 -7 -35 11 -32 9 2 17 10 17 17 0 16 -18 25 -28 15z"/>
<path d="M881 929 c-18 -4 -40 -13 -48 -22 -13 -12 -10 -17 18 -41 35 -30 40
-28 62 26 18 43 14 48 -32 37z"/>
<path d="M447 902 c-20 -22 -21 -33 -5 -67 15 -33 25 -31 76 13 31 27 41 42
37 55 -10 24 -86 24 -108 -1z"/>
<path d="M662 907 c-8 -9 -6 -24 8 -55 11 -23 23 -42 27 -42 5 0 17 15 27 34
15 29 16 37 4 55 -14 23 -50 28 -66 8z"/>
<path d="M956 885 c-33 -79 -16 -115 23 -50 19 32 20 39 7 63 l-14 26 -16 -39z"/>
<path d="M557 827 c-27 -23 -45 -46 -41 -50 13 -13 121 -8 127 6 5 14 -21 87
-32 87 -3 -1 -28 -20 -54 -43z"/>
<path d="M761 824 c-12 -19 -19 -40 -16 -44 8 -14 68 0 82 18 11 13 9 20 -9
39 -12 13 -25 23 -29 23 -4 0 -17 -16 -28 -36z"/>
<path d="M1015 820 c-8 -13 3 -30 20 -30 14 0 27 24 18 34 -10 9 -31 7 -38 -4z"/>
<path d="M866 775 c-6 -17 16 -31 33 -21 13 9 2 36 -14 36 -7 0 -16 -7 -19
-15z"/>
<path d="M447 764 c-14 -15 -6 -34 14 -34 14 0 19 5 17 17 -3 18 -20 27 -31
17z"/>
<path d="M675 761 c-8 -15 3 -31 21 -31 9 0 14 7 12 17 -4 20 -24 28 -33 14z"/>
<path d="M773 733 c-34 -7 -34 -27 0 -77 55 -79 137 -102 137 -37 0 12 5 30
12 40 14 24 -5 53 -28 44 -9 -3 -28 4 -44 16 -29 21 -35 22 -77 14z"/>
<path d="M957 634 c-14 -15 -6 -34 14 -34 14 0 19 5 17 17 -3 18 -20 27 -31
17z"/>
<path d="M802 533 c2 -10 10 -18 18 -18 8 0 16 8 18 18 2 12 -3 17 -18 17 -15
0 -20 -5 -18 -17z"/>
</g>
</svg>
